<?xml version="1.0" encoding="UTF-8" standalone="no"?>
<!-- Created with Inkscape (http://www.inkscape.org/) -->

<svg
   xmlns:dc="http://purl.org/dc/elements/1.1/"
   xmlns:cc="http://creativecommons.org/ns#"
   xmlns:rdf="http://www.w3.org/1999/02/22-rdf-syntax-ns#"
   xmlns:svg="http://www.w3.org/2000/svg"
   xmlns="http://www.w3.org/2000/svg"
   xmlns:sodipodi="http://sodipodi.sourceforge.net/DTD/sodipodi-0.dtd"
   xmlns:inkscape="http://www.inkscape.org/namespaces/inkscape"
   width="40.081867mm"
   height="48.965027mm"
   viewBox="0 0 40.081866 48.965027"
   version="1.1"
   id="svg8"
   inkscape:version="0.92.3 (2405546, 2018-03-11)"
   sodipodi:docname="logo_da_p_blanco.svg">
  <defs
     id="defs2" />
  <sodipodi:namedview
     id="base"
     pagecolor="#ffffff"
     bordercolor="#666666"
     borderopacity="1.0"
     inkscape:pageopacity="0.0"
     inkscape:pageshadow="2"
     inkscape:zoom="0.98994949"
     inkscape:cx="182.24846"
     inkscape:cy="120.71438"
     inkscape:document-units="mm"
     inkscape:current-layer="layer4"
     showgrid="false"
     inkscape:window-width="1366"
     inkscape:window-height="715"
     inkscape:window-x="-8"
     inkscape:window-y="-8"
     inkscape:window-maximized="1"
     showguides="false" />
  <metadata
     id="metadata5">
    <rdf:RDF>
      <cc:Work
         rdf:about="">
        <dc:format>image/svg+xml</dc:format>
        <dc:type
           rdf:resource="http://purl.org/dc/dcmitype/StillImage" />
        <dc:title />
      </cc:Work>
    </rdf:RDF>
  </metadata>
  <g
     inkscape:groupmode="layer"
     id="layer2"
     inkscape:label="Capa 2"
     style="display:inline"
     transform="translate(-131.50089,-5.1650613)">
    <path
       style="display:inline;fill:#ffffff;fill-opacity:1;stroke:#ffffff;stroke-width:0.26458332px;stroke-linecap:butt;stroke-linejoin:miter;stroke-opacity:1"
       d="m 140.71667,31.109458 c 0.47776,5.38472 3.52976,9.164762 10.11087,7.701264 -2.52712,-1.416627 -4.55776,-4.549924 -4.77196,-8.457216 -1.72327,-0.595467 -3.49843,-0.410702 -5.33891,0.755952 z"
       id="path3737"
       inkscape:connector-curvature="0"
       sodipodi:nodetypes="cccc" />
    <path
       style="display:inline;fill:#ffffff;fill-opacity:1;stroke:#ffffff;stroke-width:0.26458332px;stroke-linecap:butt;stroke-linejoin:miter;stroke-opacity:1"
       d="m 147.89822,21.23483 c 4.46988,1.999983 4.29408,8.045158 4.32311,8.976934 l -0.63783,8.409971 c -2.61009,-1.793469 -4.67727,-4.764458 -4.22862,-11.504649 z"
       id="path3739"
       inkscape:connector-curvature="0"
       sodipodi:nodetypes="ccccc" />
    <path
       style="display:inline;fill:#ffffff;fill-opacity:1;stroke:#ffffff;stroke-width:0.28986183px;stroke-linecap:butt;stroke-linejoin:miter;stroke-opacity:1"
       d="m 160.69639,28.157089 c -7.40622,0.226172 -9.43289,7.084292 -7.35924,10.222803 1.07433,-3.247843 2.39591,-5.313571 4.1055,-5.524247 -1.71997,3.553162 -2.61272,7.71102 0.83472,5.878113 3.8082,-3.883411 2.52598,-6.999689 2.41902,-10.576669 z"
       id="path3760"
       inkscape:connector-curvature="0"
       sodipodi:nodetypes="ccccc" />
  </g>
  <g
     inkscape:groupmode="layer"
     id="layer3"
     inkscape:label="Capa 3"
     style="display:inline"
     transform="translate(-131.50089,-5.1650613)">
    <path
       style="display:inline;fill:#ffffff;fill-opacity:1;stroke:#ffffff;stroke-width:0.26458332px;stroke-linecap:butt;stroke-linejoin:miter;stroke-opacity:1"
       d="m 141.51613,42.622539 c 0.98118,0.335476 0.81285,-1.110493 0.56696,-1.370161 -11.10632,-6.932041 -11.12167,-31.6130591 10.58334,-31.7027531 18.28676,1.2086411 20.36181,24.2667311 8.78794,31.3720241 -0.42154,0.36581 -0.916,2.396744 0.85045,1.511906 C 175.72498,35.699057 175.98075,5.8499426 152.19395,5.2973925 127.3982,5.9356348 126.56295,36.086997 141.51613,42.622539 Z"
       id="path4540"
       inkscape:connector-curvature="0"
       sodipodi:nodetypes="ccccccc" />
    <path
       style="fill:#ffffff;fill-opacity:1;stroke:#ffffff;stroke-width:0.26458332px;stroke-linecap:butt;stroke-linejoin:miter;stroke-opacity:1"
       d="m 144.41053,41.417224 c -0.59721,0.299231 -0.55204,1.685143 0,1.96075 l 14.31585,0.07087 c 0.69481,-0.438967 0.48391,-1.859574 -0.0945,-2.102493 z"
       id="path4558"
       inkscape:connector-curvature="0"
       sodipodi:nodetypes="ccccc" />
    <path
       style="fill:#ffffff;fill-opacity:1;stroke:#ffffff;stroke-width:0.26458332px;stroke-linecap:butt;stroke-linejoin:miter;stroke-opacity:1"
       d="m 144.40756,44.925289 c -0.59721,0.299231 -0.55204,1.685143 0,1.96075 l 14.31585,0.07087 c 0.69481,-0.438967 0.48391,-1.859574 -0.0945,-2.102493 z"
       id="path4558-0"
       inkscape:connector-curvature="0"
       sodipodi:nodetypes="ccccc" />
    <path
       style="fill:#ffffff;fill-opacity:1;stroke:#ffffff;stroke-width:0.26458332px;stroke-linecap:butt;stroke-linejoin:miter;stroke-opacity:1"
       d="m 144.40757,48.327074 c -0.59721,0.299231 -0.55204,1.685143 0,1.96075 l 14.31585,0.07087 c 0.69481,-0.438967 0.48391,-1.859574 -0.0945,-2.102493 z"
       id="path4558-5"
       inkscape:connector-curvature="0"
       sodipodi:nodetypes="ccccc" />
    <path
       style="display:inline;fill:#ffffff;fill-opacity:1;stroke:#ffffff;stroke-width:0.26458332px;stroke-linecap:butt;stroke-linejoin:miter;stroke-opacity:1"
       d="m 146.88803,51.823354 c 1.76514,1.834759 2.77888,2.181237 4.93731,2.173362 2.09092,0.02736 2.63826,-0.447442 4.58296,-2.244235 z"
       id="path4558-3"
       inkscape:connector-curvature="0"
       sodipodi:nodetypes="cccc" />
  </g>
  <g
     inkscape:groupmode="layer"
     id="layer4"
     inkscape:label="Capa 4"
     style="display:inline"
     transform="translate(-131.50089,-5.1650613)" />
</svg>
