<?xml version="1.0" encoding="UTF-8" standalone="no"?>
<!-- Created with Inkscape (http://www.inkscape.org/) -->

<svg
   xmlns:dc="http://purl.org/dc/elements/1.1/"
   xmlns:cc="http://creativecommons.org/ns#"
   xmlns:rdf="http://www.w3.org/1999/02/22-rdf-syntax-ns#"
   xmlns:svg="http://www.w3.org/2000/svg"
   xmlns="http://www.w3.org/2000/svg"
   xmlns:sodipodi="http://sodipodi.sourceforge.net/DTD/sodipodi-0.dtd"
   xmlns:inkscape="http://www.inkscape.org/namespaces/inkscape"
   width="151.0451mm"
   height="48.965027mm"
   viewBox="0 0 151.0451 48.965027"
   version="1.1"
   id="svg8"
   inkscape:version="0.92.3 (2405546, 2018-03-11)"
   sodipodi:docname="logo_da_blanco.svg">
  <defs
     id="defs2" />
  <sodipodi:namedview
     id="base"
     pagecolor="#ffffff"
     bordercolor="#666666"
     borderopacity="1.0"
     inkscape:pageopacity="0.0"
     inkscape:pageshadow="2"
     inkscape:zoom="0.98994949"
     inkscape:cx="250.25941"
     inkscape:cy="120.71438"
     inkscape:document-units="mm"
     inkscape:current-layer="layer4"
     showgrid="false"
     inkscape:window-width="1366"
     inkscape:window-height="715"
     inkscape:window-x="-8"
     inkscape:window-y="-8"
     inkscape:window-maximized="1"
     showguides="false" />
  <metadata
     id="metadata5">
    <rdf:RDF>
      <cc:Work
         rdf:about="">
        <dc:format>image/svg+xml</dc:format>
        <dc:type
           rdf:resource="http://purl.org/dc/dcmitype/StillImage" />
        <dc:title />
      </cc:Work>
    </rdf:RDF>
  </metadata>
  <g
     inkscape:groupmode="layer"
     id="layer2"
     inkscape:label="Capa 2"
     style="display:inline"
     transform="translate(-131.50089,-5.1650613)">
    <path
       style="display:inline;fill:#ffffff;fill-opacity:1;stroke:#ffffff;stroke-width:0.26458332px;stroke-linecap:butt;stroke-linejoin:miter;stroke-opacity:1"
       d="m 140.71667,31.109458 c 0.47776,5.38472 3.52976,9.164762 10.11087,7.701264 -2.52712,-1.416627 -4.55776,-4.549924 -4.77196,-8.457216 -1.72327,-0.595467 -3.49843,-0.410702 -5.33891,0.755952 z"
       id="path3737"
       inkscape:connector-curvature="0"
       sodipodi:nodetypes="cccc" />
    <path
       style="display:inline;fill:#ffffff;fill-opacity:1;stroke:#ffffff;stroke-width:0.26458332px;stroke-linecap:butt;stroke-linejoin:miter;stroke-opacity:1"
       d="m 147.89822,21.23483 c 4.46988,1.999983 4.29408,8.045158 4.32311,8.976934 l -0.63783,8.409971 c -2.61009,-1.793469 -4.67727,-4.764458 -4.22862,-11.504649 z"
       id="path3739"
       inkscape:connector-curvature="0"
       sodipodi:nodetypes="ccccc" />
    <path
       style="display:inline;fill:#ffffff;fill-opacity:1;stroke:#ffffff;stroke-width:0.28986183px;stroke-linecap:butt;stroke-linejoin:miter;stroke-opacity:1"
       d="m 160.69639,28.157089 c -7.40622,0.226172 -9.43289,7.084292 -7.35924,10.222803 1.07433,-3.247843 2.39591,-5.313571 4.1055,-5.524247 -1.71997,3.553162 -2.61272,7.71102 0.83472,5.878113 3.8082,-3.883411 2.52598,-6.999689 2.41902,-10.576669 z"
       id="path3760"
       inkscape:connector-curvature="0"
       sodipodi:nodetypes="ccccc" />
  </g>
  <g
     inkscape:groupmode="layer"
     id="layer3"
     inkscape:label="Capa 3"
     style="display:inline"
     transform="translate(-131.50089,-5.1650613)">
    <path
       style="display:inline;fill:#ffffff;fill-opacity:1;stroke:#ffffff;stroke-width:0.26458332px;stroke-linecap:butt;stroke-linejoin:miter;stroke-opacity:1"
       d="m 141.51613,42.622539 c 0.98118,0.335476 0.81285,-1.110493 0.56696,-1.370161 -11.10632,-6.932041 -11.12167,-31.6130591 10.58334,-31.7027531 18.28676,1.2086411 20.36181,24.2667311 8.78794,31.3720241 -0.42154,0.36581 -0.916,2.396744 0.85045,1.511906 C 175.72498,35.699057 175.98075,5.8499426 152.19395,5.2973925 127.3982,5.9356348 126.56295,36.086997 141.51613,42.622539 Z"
       id="path4540"
       inkscape:connector-curvature="0"
       sodipodi:nodetypes="ccccccc" />
    <path
       style="fill:#ffffff;fill-opacity:1;stroke:#ffffff;stroke-width:0.26458332px;stroke-linecap:butt;stroke-linejoin:miter;stroke-opacity:1"
       d="m 144.41053,41.417224 c -0.59721,0.299231 -0.55204,1.685143 0,1.96075 l 14.31585,0.07087 c 0.69481,-0.438967 0.48391,-1.859574 -0.0945,-2.102493 z"
       id="path4558"
       inkscape:connector-curvature="0"
       sodipodi:nodetypes="ccccc" />
    <path
       style="fill:#ffffff;fill-opacity:1;stroke:#ffffff;stroke-width:0.26458332px;stroke-linecap:butt;stroke-linejoin:miter;stroke-opacity:1"
       d="m 144.40756,44.925289 c -0.59721,0.299231 -0.55204,1.685143 0,1.96075 l 14.31585,0.07087 c 0.69481,-0.438967 0.48391,-1.859574 -0.0945,-2.102493 z"
       id="path4558-0"
       inkscape:connector-curvature="0"
       sodipodi:nodetypes="ccccc" />
    <path
       style="fill:#ffffff;fill-opacity:1;stroke:#ffffff;stroke-width:0.26458332px;stroke-linecap:butt;stroke-linejoin:miter;stroke-opacity:1"
       d="m 144.40757,48.327074 c -0.59721,0.299231 -0.55204,1.685143 0,1.96075 l 14.31585,0.07087 c 0.69481,-0.438967 0.48391,-1.859574 -0.0945,-2.102493 z"
       id="path4558-5"
       inkscape:connector-curvature="0"
       sodipodi:nodetypes="ccccc" />
    <path
       style="display:inline;fill:#ffffff;fill-opacity:1;stroke:#ffffff;stroke-width:0.26458332px;stroke-linecap:butt;stroke-linejoin:miter;stroke-opacity:1"
       d="m 146.88803,51.823354 c 1.76514,1.834759 2.77888,2.181237 4.93731,2.173362 2.09092,0.02736 2.63826,-0.447442 4.58296,-2.244235 z"
       id="path4558-3"
       inkscape:connector-curvature="0"
       sodipodi:nodetypes="cccc" />
  </g>
  <g
     inkscape:groupmode="layer"
     id="layer4"
     inkscape:label="Capa 4"
     style="display:inline"
     transform="translate(-131.50089,-5.1650613)">
    <path
       style="fill:#ffffff;stroke:#ffffff;stroke-width:0.26458332px;stroke-linecap:butt;stroke-linejoin:miter;stroke-opacity:1"
       d="m 175.83471,27.367997 c -2.47591,-4.025145 0.22604,-7.699824 6.09487,-6.756324 5.44849,1.389739 3.89002,18.606721 -1.41741,13.748883 l 0.0473,-12.236978 -2.55134,0.236235 0.14174,13.512649 2.22061,0.14174 0.28348,-0.803198 c 1.25884,1.342964 6.94546,3.46027 7.1343,-7.512277 0.092,-4.059074 -2.78203,-10.139017 -10.77232,-7.795759 -2.45716,0.892479 -6.01985,5.660389 -1.18123,7.465029 z"
       id="path4603"
       inkscape:connector-curvature="0"
       sodipodi:nodetypes="ccccccccccc" />
    <path
       style="display:inline;fill:#ffffff;fill-opacity:1;stroke:#ffffff;stroke-width:0.26458332px;stroke-linecap:butt;stroke-linejoin:miter;stroke-opacity:1"
       d="m 189.31815,25.211636 h 2.08804 l -0.0156,8.011411 c 0.0437,1.618852 0.97259,2.487146 2.47119,-0.09355 -1.6136,-8.554611 4.98369,-8.666983 5.81311,-7.182868 l 0.0334,1.436573 c -1.98405,-3.232438 -4.18353,1.317047 -3.87541,2.806331 -0.14839,5.842999 2.94888,4.561544 3.842,2.572468 l 0.10022,-7.717407 2.13816,0.100226 0.0334,10.256469 c 1.06585,0.12083 2.36525,-1.318348 2.44793,-2.416841 l 0.0577,-7.939854 h 2.10475 l -0.0191,8.231943 c 0.0495,2.075576 2.42656,2.195219 2.75866,-0.648169 l -0.16704,-6.347652 c -0.42214,0.116029 -0.69052,-0.177974 -0.73499,-1.069078 l 0.83521,-0.167044 -0.0668,-3.040191 2.40542,-0.200452 -0.0334,3.207234 1.60361,0.06682 -0.10023,1.236121 -1.60361,-0.06682 -0.0334,7.583772 c 0.69755,1.367554 1.56386,1.272618 2.63929,-0.634764 -0.28114,-10.529618 5.99021,-7.900752 6.01356,-7.216278 l -0.0334,1.336348 c -1.84987,-2.154441 -3.53766,0.118983 -3.77518,2.906558 -0.26023,6.448458 3.49963,4.937045 3.94222,2.706103 l -0.10022,-7.784226 2.33861,-0.06682 -0.13364,8.519217 c 0.61638,2.07537 2.1542,1.029409 2.63929,-1.102487 l -0.16704,-11.459182 2.3386,-0.267269 -0.10022,12.862346 c 0.30425,1.573283 1.11953,0.932107 1.77066,1.002261 l -0.10023,1.169305 c -1.7455,0.434148 -3.1177,0.271005 -3.60814,-1.302938 -0.5085,1.103367 -3.09587,2.814143 -4.6438,-0.300681 -1.93861,2.574979 -4.10092,2.117092 -5.81312,-0.133633 -0.84849,1.598381 -3.18312,3.162824 -5.24516,0.300678 -0.98568,1.428581 -2.76252,2.631872 -4.81085,0.133636 -0.83652,1.49034 -1.81602,1.550916 -2.77292,1.837475 0,0 -0.005,2.840232 -0.0888,3.124206 -1.28812,3.946108 -4.78779,1.621631 -4.75549,0.116437 0.0528,-2.104139 1.42422,-2.602095 2.72347,-3.077478 l 0.004,0.8558 c -0.79512,0.25614 -1.74119,0.642299 -1.79167,1.854183 -0.0635,1.585985 1.64349,1.352259 1.73725,0.668176 0.0871,-1.71498 0.0692,-3.42996 0.10023,-5.14494 -1.54241,0.802646 -3.09734,1.55245 -5.3788,-0.601355 -2.43405,3.343544 -4.74134,1.564747 -5.0113,-0.06682 z"
       id="path4605"
       inkscape:connector-curvature="0"
       sodipodi:nodetypes="cccccccccccccccccccccccccccccccccccccccccccccccccccccccc" />
    <path
       style="fill:#ffffff;stroke:#ffffff;stroke-width:0.26458332px;stroke-linecap:butt;stroke-linejoin:miter;stroke-opacity:1"
       d="m 188.83129,21.490446 c 0.0652,-1.107006 1.73999,-1.840015 2.57247,-0.601357 0.40588,1.380577 -0.0731,2.036248 -0.56795,2.338608 -0.89578,0.183703 -1.95251,-0.151957 -2.00452,-1.737251 z"
       id="path855"
       inkscape:connector-curvature="0"
       sodipodi:nodetypes="cccc" />
    <path
       style="display:inline;fill:#ffffff;stroke:#ffffff;stroke-width:0.26458332px;stroke-linecap:butt;stroke-linejoin:miter;stroke-opacity:1"
       d="m 204.07309,21.656112 c 0.0652,-1.107006 1.73999,-1.840015 2.57247,-0.601357 0.40588,1.380577 -0.0731,2.036248 -0.56795,2.338608 -0.89578,0.183703 -1.95251,-0.151957 -2.00452,-1.737251 z"
       id="path855-5"
       inkscape:connector-curvature="0"
       sodipodi:nodetypes="cccc" />
    <path
       style="display:inline;fill:#ffffff;stroke:#ffffff;stroke-width:0.26458332px;stroke-linecap:butt;stroke-linejoin:miter;stroke-opacity:1"
       d="m 261.16855,34.251188 c 0.0652,-1.107006 1.73999,-1.840015 2.57247,-0.601357 0.40588,1.380577 -0.0731,2.036249 -0.56795,2.338609 -0.89578,0.183702 -1.95251,-0.151958 -2.00452,-1.737252 z"
       id="path855-3"
       inkscape:connector-curvature="0"
       sodipodi:nodetypes="cccc" />
    <path
       style="display:inline;fill:#ffffff;stroke:#ffffff;stroke-width:0.26458332px;stroke-linecap:butt;stroke-linejoin:miter;stroke-opacity:1"
       d="m 230.02427,28.424035 c 0.0807,0.26727 0.44843,0.501131 -0.16704,0.80181 -0.7607,0.281176 -1.85267,0.04591 -1.87089,-1.436576 0.18861,-1.267581 1.78781,-1.814994 3.77519,-1.737251 2.36689,0.322057 4.67083,0.77003 6.949,1.269529 l -0.0668,-6.748555 c -3.91692,1.797363 -4.75488,7.399683 -5.33168,11.924547 -0.40137,3.148596 -0.32385,5.907409 0.95514,6.216373 -2.23678,-0.444457 -5.02886,-0.996699 -2.00452,-10.99146 0.92816,-2.904632 2.15301,-5.660914 4.84426,-7.683999 1.62732,-1.010718 2.81586,-0.948856 3.64154,0 v 15.802311 h -2.10474 v -7.984677 c -2.95009,-0.476833 -5.80171,-1.773058 -8.95353,-0.400905 0,0 -0.81512,0.735713 0.33407,0.968853 z"
       id="path878"
       inkscape:connector-curvature="0"
       sodipodi:nodetypes="ccccccsccccccccc" />
    <path
       style="display:inline;fill:#ffffff;stroke:#ffffff;stroke-width:0.26458332px;stroke-linecap:butt;stroke-linejoin:miter;stroke-opacity:1"
       d="M 242.83644,41.787787 V 24.315042 h 2.07134 v 9.721927 c 0.63159,0.750905 3.22572,2.129453 3.74177,-2.104747 v -3.173825 c -0.0807,-1.691797 -2.14623,-3.401142 -3.77518,-1.369756 l 0.0334,-1.302939 c 2.93717,-2.309861 5.25358,-0.48315 5.64607,2.338608 v 3.541321 c -0.0698,3.198662 -2.95339,5.762603 -5.64607,3.073601 v 5.913337 z"
       id="path880"
       inkscape:connector-curvature="0"
       sodipodi:nodetypes="ccccccccccccc" />
    <path
       style="display:inline;fill:#ffffff;stroke:#ffffff;stroke-width:0.26458332px;stroke-linecap:butt;stroke-linejoin:miter;stroke-opacity:1"
       d="M 252.09065,41.888013 V 24.415268 h 2.07134 v 9.721927 c 0.63159,0.750905 3.22572,2.129453 3.74177,-2.104747 v -3.173825 c -0.0807,-1.691798 -2.14623,-3.401142 -3.77518,-1.369757 l 0.0334,-1.302938 c 2.93717,-2.309861 5.25358,-0.48315 5.64607,2.338608 v 3.541321 c -0.0698,3.198662 -2.95339,5.762603 -5.64607,3.073601 v 5.913337 z"
       id="path880-8"
       inkscape:connector-curvature="0"
       sodipodi:nodetypes="ccccccccccccc" />
    <path
       style="fill:#ffffff;stroke:#ffffff;stroke-width:0.26458332px;stroke-linecap:butt;stroke-linejoin:miter;stroke-opacity:1"
       d="m 270.88302,27.904914 c -0.2381,1.533704 0.79191,1.038403 1.30294,0.53454 0.31861,-0.667305 0.0465,-3.615218 -2.83972,-3.60814 -1.21268,0.07684 -3.88233,1.7089 -3.74179,5.512433 -0.048,4.304333 1.41737,4.993475 2.93997,5.545844 2.67896,0.51055 4.04576,-0.705438 5.04471,-2.405425 0.52442,1.058153 4.58821,5.023614 6.85215,-0.06108 0.40952,-0.905767 0.68952,-2.759252 0.68438,-3.973262 -0.1832,0.0536 -1.03991,-0.536926 -1.09622,0.429643 -0.19856,3.407913 -1.57781,5.074408 -2.76535,4.941051 -2.16716,-0.481795 -1.79823,-3.062043 -1.73998,-5.520827 0.12413,-2.731486 3.25775,-4.189698 3.69707,-1.866258 -0.76508,0.431955 -0.46982,1.911235 0.14542,2.284406 2.14296,1.159751 3.47504,-3.052415 2.91438,-3.861161 -0.0845,0.945135 -0.81308,2.746126 -1.34193,2.048241 -0.0688,-1.68949 -1.54189,-3.181192 -3.77518,-3.0736 -1.75022,0.253668 -3.75818,1.594953 -3.84199,7.617181 -0.86074,2.235615 -4.30492,3.68686 -5.57924,0.601358 -0.27454,-3.483846 -0.18583,-6.500664 2.00451,-6.815374 0.9451,0.1414 1.5209,0.553617 1.13588,1.670434 z"
       id="path927"
       inkscape:connector-curvature="0"
       sodipodi:nodetypes="ccccccccscccccccccccc" />
  </g>
</svg>
